<svg xmlns="http://www.w3.org/2000/svg" version="1.1" xmlns:xlink="http://www.w3.org/1999/xlink" xmlns:svgjs="http://svgjs.com/svgjs" width="512" height="512" x="0" y="0" viewBox="0 0 512 512" style="enable-background:new 0 0 512 512" xml:space="preserve" class=""><g><path d="M328.4 256 497 87.4c9.667-9.667 15-22.533 15-36.2s-5.333-26.533-15-36.2-22.533-15-36.2-15-26.533 5.333-36.2 15L256 183.6 87.4 15C77.733 5.333 64.867 0 51.2 0S24.667 5.333 15 15 0 37.533 0 51.2s5.333 26.533 15 36.2L183.6 256 15 424.6c-9.667 9.666-15 22.533-15 36.2s5.333 26.533 15 36.2c9.683 9.667 22.533 15 36.2 15s26.517-5.333 36.2-15L256 328.4 424.6 497c9.683 9.667 22.533 15 36.2 15s26.517-5.333 36.2-15c9.667-9.666 15-22.533 15-36.2s-5.333-26.533-15-36.2z" fill="#7a32c6" data-original="#000000" class="" opacity="1"></path></g></svg>