<svg xmlns="http://www.w3.org/2000/svg" version="1.1" xmlns:xlink="http://www.w3.org/1999/xlink" width="512" height="512" x="0" y="0" viewBox="0 0 48 48" style="enable-background:new 0 0 512 512" xml:space="preserve" class=""><g><rect width="4" height="6" x="11" y="3" rx="2" fill="#7a32c6" opacity="1" data-original="#000000" class=""></rect><rect width="4" height="6" x="33" y="3" rx="2" fill="#7a32c6" opacity="1" data-original="#000000" class=""></rect><path d="M4 18v23a4 4 0 0 0 4 4h32a4 4 0 0 0 4-4V18zm12 20a2 2 0 0 1-2 2h-2a2 2 0 0 1-2-2v-2a2 2 0 0 1 2-2h2a2 2 0 0 1 2 2zm0-11a2 2 0 0 1-2 2h-2a2 2 0 0 1-2-2v-2a2 2 0 0 1 2-2h2a2 2 0 0 1 2 2zm11 11a2 2 0 0 1-2 2h-2a2 2 0 0 1-2-2v-2a2 2 0 0 1 2-2h2a2 2 0 0 1 2 2zm0-11a2 2 0 0 1-2 2h-2a2 2 0 0 1-2-2v-2a2 2 0 0 1 2-2h2a2 2 0 0 1 2 2zm11 11a2 2 0 0 1-2 2h-2a2 2 0 0 1-2-2v-2a2 2 0 0 1 2-2h2a2 2 0 0 1 2 2zm0-11a2 2 0 0 1-2 2h-2a2 2 0 0 1-2-2v-2a2 2 0 0 1 2-2h2a2 2 0 0 1 2 2zM44 16v-6a4 4 0 0 0-4-4h-1v1c0 2.206-1.794 4-4 4s-4-1.794-4-4V6H17v1c0 2.206-1.794 4-4 4S9 9.206 9 7V6H8a4 4 0 0 0-4 4v6z" fill="#7a32c6" opacity="1" data-original="#000000" class=""></path></g></svg>