<?xml version="1.0" encoding="UTF-8"?>
<svg id="Camada_2" data-name="Camada 2" xmlns="http://www.w3.org/2000/svg" viewBox="0 0 435.08 435.08">
  <defs>
    <style>
      .cls-1 {
        fill: #ededed;
      }
    </style>
  </defs>
  <g id="Camada_1-2" data-name="Camada 1">
    <path class="cls-1" d="m217.54,0C97.4,0,0,97.4,0,217.54s97.4,217.54,217.54,217.54,217.54-97.4,217.54-217.54S337.68,0,217.54,0Zm127.46,263.18l-39.87-21.92-8.15,14.83,41.29,22.7,28.66,15.75c-27.92,54.06-84.34,91.03-149.39,91.03-71.94,0-133.32-45.21-157.29-108.77,15.39,13.45,33.91,23.39,54.32,28.6,10.51,2.68,21.51,4.1,32.85,4.1,34.51,0,65.93-13.19,89.52-34.8l74.06,40.72c4.2-4.02,8.15-8.3,11.81-12.82l-73.76-40.55c19.31-23.02,30.93-52.7,30.93-85.11,0-35.98-14.33-68.6-37.6-92.48-14.27-14.65-31.9-26.02-51.66-32.84,8.73-1.4,17.69-2.13,26.81-2.13,92.8,0,168.04,75.24,168.04,168.04,0,21.73-4.13,42.5-11.64,61.56l-28.94-15.91Z"/>
  </g>
</svg>