<?xml version="1.0" encoding="UTF-8"?>
<svg id="Camada_2" data-name="Camada 2" xmlns="http://www.w3.org/2000/svg" viewBox="0 0 1289.55 181.44">
  <defs>
    <style>
      .cls-1 {
        fill: #EDEDED;
      }
    </style>
  </defs>
  <g id="Camada_1-2" data-name="Camada 1">
    <g>
      <path class="cls-1" d="m90.72,0C40.62,0,0,40.62,0,90.72s40.62,90.72,90.72,90.72,90.72-40.62,90.72-90.72S140.82,0,90.72,0Zm53.15,109.75l-16.63-9.14-3.4,6.18,17.22,9.47,11.95,6.57c-11.64,22.55-35.17,37.96-62.3,37.96-30,0-55.6-18.85-65.59-45.36,6.42,5.61,14.14,9.75,22.65,11.93,4.38,1.12,8.97,1.71,13.7,1.71,14.39,0,27.5-5.5,37.33-14.51l30.89,16.98c1.75-1.68,3.4-3.46,4.92-5.35l-30.76-16.91c8.05-9.6,12.9-21.98,12.9-35.49,0-15-5.98-28.61-15.68-38.57-5.95-6.11-13.3-10.85-21.54-13.69,3.64-.58,7.38-.89,11.18-.89,38.7,0,70.08,31.38,70.08,70.08,0,9.06-1.72,17.72-4.85,25.67l-12.07-6.64Z"/>
      <g>
        <path class="cls-1" d="m234.22,113.56h15.29c1.37,9.44,10.07,15.41,23.99,15.41,11.31,0,17.27-4.35,17.27-11.68,0-6.84-5.34-9.57-13.79-12.18l-14.17-4.23c-10.19-3.11-26.1-7.58-26.1-24.61,0-14.29,11.81-24.73,31.07-24.73,21,0,34.42,11.31,35.54,29.7h-15.16c-.62-9.82-7.83-16.41-20.88-16.41-9.57,0-15.78,3.98-15.78,10.69,0,7.58,7.58,9.44,16.03,12.18l13.17,4.1c12.3,3.85,25.23,8.33,25.23,24.73s-12.55,25.73-32.44,25.73c-22.87,0-38.15-11.43-39.27-28.71Z"/>
        <path class="cls-1" d="m314.13,107.71c0-21.75,14.29-35.17,32.68-35.17s31.07,13.05,31.44,34.42v3.48h-49.46c.99,11.56,8.2,19.39,19.39,19.39,7.58,0,13.3-3.73,15.53-10.32h14.29c-3.36,14.17-14.42,22.74-29.95,22.74-20.13,0-33.93-14.42-33.93-34.55Zm48.97-7.58c-1.86-9.44-7.71-15.16-16.28-15.16s-15.16,5.72-17.4,15.16h33.68Z"/>
        <path class="cls-1" d="m389.94,140.4V47.19h14.66v93.21h-14.66Z"/>
        <path class="cls-1" d="m416.28,107.71c0-21.75,14.29-35.17,32.69-35.17s31.07,13.05,31.44,34.42v3.48h-49.46c.99,11.56,8.2,19.39,19.39,19.39,7.58,0,13.3-3.73,15.53-10.32h14.29c-3.36,14.17-14.42,22.74-29.95,22.74-20.13,0-33.93-14.42-33.93-34.55Zm48.97-7.58c-1.86-9.44-7.71-15.16-16.28-15.16s-15.16,5.72-17.4,15.16h33.68Z"/>
        <path class="cls-1" d="m491.84,140.4v-65.87h11.81l1.24,9.69c4.1-6.84,12.43-11.68,22.25-11.68,14.04,0,23.24,9.45,23.24,24.23v43.62h-14.66v-42.88c0-7.33-4.85-12.18-13.05-12.18-9.57,0-16.03,6.59-16.16,15.16v39.89h-14.66Z"/>
        <path class="cls-1" d="m560.94,107.71c0-21.75,14.29-35.17,32.68-35.17s31.07,13.05,31.44,34.42v3.48h-49.46c.99,11.56,8.2,19.39,19.39,19.39,7.58,0,13.3-3.73,15.53-10.32h14.29c-3.36,14.17-14.42,22.74-29.95,22.74-20.13,0-33.93-14.42-33.93-34.55Zm48.97-7.58c-1.86-9.44-7.71-15.16-16.28-15.16s-15.16,5.72-17.4,15.16h33.68Z"/>
        <path class="cls-1" d="m690.55,140.4V62.98h-30.08v-9.57h70.59v9.57h-30.08v77.42h-10.44Z"/>
        <path class="cls-1" d="m728.08,107.71c0-22.49,14.54-34.67,31.19-34.67,18.14,0,29.83,12.18,30.2,33.31v2.86h-51.08c.62,14.04,8.82,23.61,22.12,23.61,9.2,0,15.91-4.6,18.64-13.17h10.07c-2.98,13.55-13.67,22.12-28.71,22.12-19.51,0-32.44-14.29-32.44-34.05Zm50.58-7.08c-1.86-11.56-8.82-18.64-19.39-18.64s-18.14,6.84-20.26,18.64h39.64Z"/>
        <path class="cls-1" d="m799.66,107.09c0-22.12,14.54-34.05,32.44-34.05,16.53,0,28.33,9.94,30.2,26.84h-10.07c-1.74-10.94-9.32-17.9-20.38-17.9-13.05,0-21.75,9.57-21.75,25.1,0,16.78,10.19,25.73,22.49,25.73,10.56,0,17.77-6.71,19.64-18.14h10.07c-1.86,17.03-12.8,27.09-29.83,27.09-21.38,0-32.81-15.66-32.81-34.67Z"/>
        <path class="cls-1" d="m875.84,140.4v-65.87h8.2l.99,10.07c4.47-6.96,13.05-11.56,22.87-11.56,14.17,0,23.61,9.2,23.61,23.74v43.62h-10.32v-43.25c0-9.2-5.96-15.04-15.91-15.04-11.81,0-19.01,8.2-19.14,18.27v40.02h-10.32Z"/>
        <path class="cls-1" d="m944.32,106.85c0-22,14.42-33.8,32.31-33.8,21,0,32.31,15.16,32.31,33.8,0,22.74-13.79,34.92-32.31,34.92-21.13,0-32.31-15.04-32.31-34.92Zm54.06,0c0-14.79-8.57-24.86-21.75-24.86s-21.75,10.07-21.75,24.86c0,16.9,9.82,25.97,21.75,25.97,14.04,0,21.75-11.68,21.75-25.97Z"/>
        <path class="cls-1" d="m1022.86,140.4V47.19h10.31v93.21h-10.31Z"/>
        <path class="cls-1" d="m1047.09,106.85c0-22,14.42-33.8,32.31-33.8,21,0,32.31,15.16,32.31,33.8,0,22.74-13.79,34.92-32.31,34.92-21.13,0-32.31-15.04-32.31-34.92Zm54.06,0c0-14.79-8.57-24.86-21.75-24.86s-21.75,10.07-21.75,24.86c0,16.9,9.82,25.97,21.75,25.97,14.04,0,21.75-11.68,21.75-25.97Z"/>
        <path class="cls-1" d="m1124.14,144.25h10.32c0,7.83,7.95,13.79,19.51,13.79,13.55,0,20.63-8.08,20.63-19.39v-10.69c-4.6,6.84-12.55,11.31-22.62,11.31-17.52,0-30.08-13.42-30.08-32.81s12.68-33.43,30.08-33.43c10.56,0,19.14,4.97,23.61,12.92l1.12-11.43h8.08v64.13c0,16.65-11.18,28.09-30.82,28.09-17.77,0-29.83-8.57-29.83-22.49Zm50.46-38.15c0-14.17-8.7-24.11-21.13-24.11s-20.88,9.94-20.88,24.36,8.58,23.99,20.88,23.99,21.13-9.94,21.13-24.23Z"/>
        <path class="cls-1" d="m1199.2,55.77c0-4.35,3.36-7.58,7.71-7.58s7.58,3.23,7.58,7.58-3.23,7.71-7.58,7.71-7.71-3.36-7.71-7.71Zm2.49,84.63v-65.87h10.32v65.87h-10.32Z"/>
        <path class="cls-1" d="m1225.67,121.63c0-15.16,14.66-18.02,27.84-19.39,10.07-.99,18.77-.87,18.89-6.21-.12-8.33-6.96-14.17-16.9-14.17s-17.03,5.34-18.14,13.17h-10.19c1.24-12.93,12.92-22,28.58-22s26.72,9.69,26.72,23.61v32.06c0,2.11,1.12,3.23,3.36,3.23h3.73v8.45h-5.84c-7.08,0-10.81-3.23-10.81-9.32v-1.99c-3.85,7.58-11.31,12.3-22.74,12.3-14.91,0-24.48-7.71-24.48-19.76Zm46.73-7.83v-8.58c-2.86,3.85-10.19,4.6-18.27,5.47-9.07.99-18.14,2.24-18.14,10.69,0,6.84,6.21,11.19,15.66,11.19,12.3,0,20.75-7.83,20.75-18.77Z"/>
      </g>
    </g>
  </g>
</svg>